<?xml version="1.0" encoding="UTF-8"?>
<svg width="22px" height="22px" viewBox="0 0 22 22" version="1.1" xmlns="http://www.w3.org/2000/svg" xmlns:xlink="http://www.w3.org/1999/xlink">
    <!-- Generator: Sketch 48.2 (47327) - http://www.bohemiancoding.com/sketch -->
    <title>Header/MyAccount</title>
    <desc>Created with Sketch.</desc>
    <defs>
        <path d="M0.3,10.996 C0.3,5.098 5.098,0.3 10.995,0.3 C16.891,0.3 21.689,5.098 21.689,10.996 C21.689,16.891 16.891,21.689 10.995,21.689 C5.098,21.689 0.3,16.891 0.3,10.996 Z M1.474,10.996 C1.474,13.573 2.505,15.915 4.175,17.631 C4.642,17.235 5.331,16.926 6.091,16.585 C7.171,16.1 8.512,15.499 8.512,14.785 L8.512,13.813 C8.13,13.493 7.483,12.805 7.381,11.77 C7.072,11.478 6.558,10.882 6.558,10.146 C6.558,9.699 6.735,9.338 6.89,9.108 C6.795,8.63 6.617,7.625 6.617,6.889 C6.617,4.421 8.335,2.827 10.995,2.827 C11.757,2.827 12.684,3.031 13.201,3.584 C14.406,3.796 15.372,5.223 15.372,6.889 C15.372,7.957 15.185,8.836 15.072,9.27 C15.198,9.483 15.333,9.799 15.333,10.165 C15.333,10.994 14.914,11.529 14.524,11.815 C14.414,12.836 13.832,13.494 13.477,13.807 L13.477,14.785 C13.477,15.392 14.577,15.8 15.642,16.196 C16.53,16.523 17.439,16.862 18.015,17.418 C19.566,15.724 20.515,13.468 20.515,10.996 C20.515,5.745 16.243,1.475 10.995,1.475 C5.745,1.475 1.474,5.745 1.474,10.996 Z M5.057,18.431 C6.686,19.735 8.751,20.515 10.995,20.515 C13.349,20.515 15.506,19.656 17.17,18.235 C16.768,17.865 15.962,17.566 15.233,17.297 C13.859,16.787 12.303,16.21 12.303,14.785 L12.303,13.198 L12.577,13.024 C12.605,13.006 13.369,12.493 13.369,11.469 L13.369,11.071 L13.738,10.923 C13.799,10.895 14.157,10.707 14.157,10.165 C14.157,10 14.031,9.815 13.987,9.763 L13.774,9.511 L13.871,9.192 C13.876,9.181 14.198,8.188 14.198,6.889 C14.198,5.78 13.561,4.732 12.89,4.732 L12.552,4.732 L12.382,4.441 C12.258,4.229 11.73,4.002 10.995,4.002 C8.989,4.002 7.792,5.081 7.792,6.889 C7.792,7.743 8.091,9.118 8.094,9.132 L8.164,9.45 L7.931,9.678 C7.931,9.678 7.732,9.889 7.732,10.146 C7.732,10.471 8.123,10.876 8.311,11.022 L8.54,11.197 L8.542,11.489 C8.542,12.456 9.377,13.003 9.413,13.024 L9.683,13.198 L9.687,14.785 C9.687,16.26 8.032,17.002 6.571,17.657 C6.068,17.883 5.433,18.169 5.057,18.431 Z" id="path-1"></path>
    </defs>
    <g id="Atom---Icons-v2." stroke="none" stroke-width="1" fill="none" fill-rule="evenodd" transform="translate(-283.000000, -447.000000)">
        <g id="Icon/Header/MyAccount" transform="translate(282.000000, 446.000000)">
            <g id="Header/MyAccount" transform="translate(1.000000, 1.000000)">
                <mask id="mask-2" fill="white">
                    <use xlink:href="#path-1"></use>
                </mask>
                <use id="Clip-2" fill="#FFFFFF" xlink:href="#path-1"></use>
            </g>
        </g>
    </g>
</svg>