<?xml version="1.0" encoding="UTF-8"?>
<svg width="24px" height="20px" viewBox="0 0 24 20" version="1.1" xmlns="http://www.w3.org/2000/svg" xmlns:xlink="http://www.w3.org/1999/xlink">
    <!-- Generator: Sketch 48.2 (47327) - http://www.bohemiancoding.com/sketch -->
    <title>chat</title>
    <desc>Created with Sketch.</desc>
    <defs>
        <path d="M4.09142644,17.4372418 L2.48530647,17.4372418 C1.65388562,17.4372418 0.978449482,16.756177 0.978449482,15.9178276 L0.978449482,4.64601746 C0.978449482,3.80842067 1.65388562,3.12660333 2.48530647,3.12660333 L21.5139472,3.12660333 C22.3446217,3.12660333 23.0208042,3.80842067 23.0208042,4.64601746 L23.0208042,15.9178276 C23.0208042,16.756177 22.3446217,17.4372418 21.5139472,17.4372418 L8.0350779,17.4372418 C7.90596138,17.4372418 7.77983021,17.4899208 7.6880306,17.583238 L4.58027801,20.7326922 L4.58027801,17.9309197 C4.58027801,17.6592463 4.36085456,17.4372418 4.09142644,17.4372418 M21.5139472,2.1400001 L2.48530647,2.1400001 C1.11502939,2.1400001 0,3.2643214 0,4.64601746 L0,15.9178276 C0,17.2995237 1.11502939,18.4245975 2.48530647,18.4245975 L3.60182853,18.4245975 L3.60182853,20.9652326 C3.60182853,21.3272128 3.81602761,21.6500601 4.14740181,21.7877782 C4.25562086,21.8336842 4.36906428,21.856261 4.48549305,21.856261 C4.72208228,21.856261 4.94374475,21.7629438 5.11017819,21.5928657 L8.23882825,18.4245975 L21.5139472,18.4245975 C22.8849706,18.4245975 24,17.2995237 24,15.9178276 L24,4.64601746 C24,3.2643214 22.8849706,2.1400001 21.5139472,2.1400001" id="path-1"></path>
    </defs>
    <g id="Icon/function/Speech-bubble" stroke="none" stroke-width="1" fill="none" fill-rule="evenodd" transform="translate(0.000000, -2.000000)">
        <mask id="mask-2" fill="white">
            <use xlink:href="#path-1"></use>
        </mask>
        <use id="chat" fill="#FFFFFF" xlink:href="#path-1"></use>
    </g>
</svg>