<?xml version="1.0" encoding="UTF-8"?>
<svg width="418px" height="231px" viewBox="0 0 418 231" version="1.1" xmlns="http://www.w3.org/2000/svg" xmlns:xlink="http://www.w3.org/1999/xlink">
    <!-- Generator: Sketch 60.1 (88133) - https://sketch.com -->
    
    <defs>
        <linearGradient x1="73.0842512%" y1="100%" x2="39.6558906%" y2="29.0088819%" id="linearGradient-1">
            <stop stop-color="#00FFFF" offset="0%"></stop>
            <stop stop-color="#026CDF" offset="100%"></stop>
        </linearGradient>
        <polygon id="path-2" points="0.62274319 0.65585106 14.9174422 0.65585106 14.9174422 132.621894 0.62274319 132.621894"></polygon>
        <polygon id="path-4" points="0.62274319 0.65585106 14.9174422 0.65585106 14.9174422 132.621894 0.62274319 132.621894"></polygon>
    </defs>
    <g id="Final-Collector-Ticket-Landing-Page" stroke="none" stroke-width="1" fill="none" fill-rule="evenodd">
        <g id="CT_Dark">
            <path d="M140.177731,118.191715 C141.864722,100.029332 142.255945,76.5347361 142.258436,67.7174171 L142.258436,17.7434808 C142.392997,12.3714383 141.986823,11.3259064 143.741094,8.97345954 C143.863195,8.81165106 143.746078,8.56271493 143.546729,8.57848716 C138.896914,8.92367235 137.16507,12.8269915 137.15261,17.7434808 L137.150118,17.7434808 L137.147627,67.7174171 C137.147627,76.6567149 136.591941,100.758715 134.817735,118.958439 L140.177731,118.191715 Z" id="Fill-1" fill="#262626" fill-rule="nonzero"></path>
            <path d="M131.045055,185.380334 L131.555887,166.421355 L123.529598,167.432036 L123.529598,142.272058 L142.991044,139.782695 L138.189225,155.732036 L148.181594,154.442547 L131.045055,185.380334 Z M160.092697,119.464526 C158.98631,118.506121 157.498667,118.077951 156.073322,118.282079 L150.456664,119.081164 L117.25758,123.818419 L112.136802,124.547802 C109.667367,124.901292 107.803454,127.044632 107.803454,129.538972 L107.803454,192.706526 C107.803454,194.17027 108.438879,195.559334 109.545266,196.517739 C110.467255,197.314334 111.643414,197.747483 112.849475,197.747483 C113.091186,197.747483 113.335388,197.730058 113.574607,197.695206 L157.511127,191.32244 C159.973087,190.963972 161.832016,188.820632 161.832016,186.33376 L161.832016,123.273249 C161.832016,121.811994 161.199083,120.422929 160.092697,119.464526 L160.092697,119.464526 Z" id="Fill-3" fill="url(#linearGradient-1)" fill-rule="nonzero"></path>
            <path d="M34.0156674,115.369277 C18.0777148,115.369277 5.73302804,104.689915 5.73302804,86.0495745 C5.73302804,68.8630213 16.0343876,56.0477872 33.9184848,56.0477872 C42.2736997,56.0477872 50.0508025,59.445766 56.3676739,67.4067447 L60.5465274,63.8145958 C53.2578296,54.7856808 43.6342566,50.8051915 33.9184848,50.8051915 C11.9527168,50.8051915 0.00174430374,66.438383 0.00174430374,86.0495745 C0.00174430374,108.476234 15.4537836,120.611872 34.0156674,120.611872 C46.163497,120.611872 54.6183865,115.175106 60.6462018,107.699553 L56.4648566,104.204489 C51.2169942,110.709192 44.025479,115.369277 34.0156674,115.369277" id="Fill-5" fill="#262626" fill-rule="nonzero"></path>
            <path d="M89.0898155,108.679117 C77.8191215,108.679117 70.3335665,100.036053 70.3335665,89.5508613 C70.3335665,78.8715 77.8191215,70.2334149 89.0898155,70.2334149 C99.4908492,70.2334149 107.846065,78.0002234 107.846065,89.5508613 C107.846065,100.912308 99.5880321,108.679117 89.0898155,108.679117 M113.096419,89.5508613 C113.096419,75.182266 102.600694,65.4762447 89.0898155,65.4762447 C74.709277,65.4762447 65.0857041,76.2526915 65.0857041,89.5508613 C65.0857041,102.854011 74.709277,113.533372 89.0898155,113.533372 C102.600694,113.533372 113.096419,103.727777 113.096419,89.5508613" id="Fill-7" fill="#262626" fill-rule="nonzero"></path>
            <path d="M155.990343,74.2074319 C157.253718,64.4989213 164.34805,58.0913042 173.386035,58.0913042 C181.579279,58.0913042 187.190953,63.3214532 188.962668,71.3347085 L155.840831,76.0221766 L155.990343,74.2074319 Z M173.774766,101.393751 C182.620877,101.393751 188.743384,97.8986871 192.72538,92.5565166 L189.034932,89.449794 C185.730722,93.7240281 180.674733,96.5394954 173.871949,96.5394954 C164.186078,96.5394954 157.161518,90.102006 155.952965,80.3710915 L194.544439,74.8198149 C194.47716,73.3635383 194.305221,71.9520702 194.031116,70.5978574 C191.965362,60.3914745 184.160848,53.334134 173.386035,53.334134 C160.363562,53.334134 150.545624,63.3339 150.545624,77.3141553 C150.545624,91.3914954 160.169197,101.393751 173.774766,101.393751 L173.774766,101.393751 Z" id="Fill-9" fill="#262626" fill-rule="nonzero"></path>
            <path d="M226.049805,93.764853 C234.307837,93.764853 240.724383,90.4639599 244.708871,85.9009595 L241.210296,82.600066 C237.906086,86.4809808 232.269494,88.9105977 226.436044,88.9105977 C215.648771,88.9105977 208.26289,81.1437894 208.26289,69.6852574 C208.26289,58.4233851 215.551588,50.4624064 226.436044,50.4624064 C232.655732,50.4624064 237.808904,53.0837042 240.918748,56.8700234 L244.611689,53.5716192 C240.044105,48.326534 233.046955,45.7052361 226.241678,45.7052361 C212.538926,45.7052361 203.015028,55.6079171 203.015028,69.7823426 C203.015028,83.859683 212.441744,93.764853 226.049805,93.764853" id="Fill-11" fill="#262626" fill-rule="nonzero"></path>
            <path d="M256.032392,74.246266 C256.032392,82.8868405 258.850689,88.0323511 267.502436,88.0323511 C272.458751,88.0323511 276.052016,86.3819042 278.289708,85.0227128 L276.929151,80.3626277 C274.983007,81.624734 271.77598,83.0810106 268.08304,83.0810106 C262.349264,83.0810106 261.183073,79.3892872 261.183073,72.8845851 L261.183073,45.0211595 L278.386891,42.5542021 L278.386891,37.9912021 L261.183073,40.4581595 L261.183073,23.1745213 L256.032392,23.9611595 L256.032392,41.2945851 L249.812704,42.1509255 L249.812704,46.7139255 L256.032392,45.8575851 L256.032392,74.246266 Z" id="Fill-13" fill="#262626" fill-rule="nonzero"></path>
            <path d="M308.137486,38.7631532 C318.538521,38.7631532 326.893736,46.5299617 326.893736,58.0830894 C326.893736,69.4420468 318.635703,77.2088553 308.137486,77.2088553 C296.866793,77.2088553 289.383729,68.5682808 289.383729,58.0830894 C289.383729,47.4037277 296.866793,38.7631532 308.137486,38.7631532 M308.137486,82.0656 C321.648365,82.0656 332.14409,72.2575149 332.14409,58.0830894 C332.14409,43.7120042 321.648365,34.005983 308.137486,34.005983 C293.756948,34.005983 284.133375,44.7824298 284.133375,58.0830894 C284.133375,71.3837489 293.756948,82.0656 308.137486,82.0656" id="Fill-15" fill="#262626" fill-rule="nonzero"></path>
            <path d="M347.233563,53.7065426 C347.233563,42.5417553 353.35607,34.7749468 362.977151,34.7749468 C363.851794,34.7749468 364.923295,34.8720319 365.989812,34.969117 L365.989812,29.2410958 L363.465555,29.2410958 C356.174366,29.2410958 350.537773,33.2215851 347.427929,39.7262872 L347.233563,39.7262872 L347.233563,29.0519042 L342.082884,29.7912447 L342.082884,77.5172872 L347.226088,76.7754574 L347.233563,53.7065426 Z" id="Fill-17" fill="#262626" fill-rule="nonzero"></path>
            <polygon id="Fill-19" fill="#262626" fill-rule="nonzero" points="199.868054 183.068215 205.409956 182.26913 205.409956 114.814895 227.27605 111.64096 227.27605 106.590045 178.293509 113.620002 178.293509 118.668428 199.868054 115.606513"></polygon>
            <path d="M241.813576,115.877355 C241.813576,113.447739 239.967106,111.700206 237.53754,111.700206 C235.107974,111.700206 233.261504,113.447739 233.261504,115.877355 C233.261504,118.207398 235.107974,120.1491 237.53754,120.1491 C239.967106,120.1491 241.813576,118.207398 241.813576,115.877355" id="Fill-21" fill="#262626" fill-rule="nonzero"></path>
            <polygon id="Fill-23" fill="#262626" fill-rule="nonzero" points="234.817423 178.106668 239.96561 177.35986 239.96561 129.606434 234.817423 130.343285"></polygon>
            <path d="M274.842964,128.749595 C281.062653,128.749595 286.213333,131.370894 289.325669,135.154724 L293.01861,131.856319 C288.451025,126.613724 281.451384,123.992426 274.648599,123.992426 C260.945847,123.992426 251.421949,133.892617 251.421949,148.069532 C251.421949,162.146872 260.848664,172.052042 274.456725,172.052042 C282.714758,172.052042 289.128812,168.74866 293.115792,164.18566 L289.617217,160.884766 C286.313008,164.768171 280.676415,167.195298 274.842964,167.195298 C264.055692,167.195298 256.669811,159.428489 256.669811,147.972447 C256.669811,136.708085 263.958509,128.749595 274.842964,128.749595" id="Fill-25" fill="#262626" fill-rule="nonzero"></path>
            <polygon id="Fill-27" fill="#262626" fill-rule="nonzero" points="305.864659 145.552787 305.864659 91.2125106 300.713979 91.9593189 300.713979 168.574405 305.864659 167.832574 305.864659 152.25166 317.429392 139.727681 333.698763 163.859553 339.11358 163.095319 321.122333 136.038447 340.135244 115.217426 332.749364 116.280383 306.056533 145.649872"></polygon>
            <path d="M417.409644,107.954713 L417.409644,103.391713 L400.208317,105.798926 L400.208317,88.6123719 L395.057637,89.1973719 L395.057637,106.548223 L388.837948,107.471776 L388.837948,112.034776 L395.057637,111.111223 L395.057637,139.587032 C395.057637,148.227606 397.875934,153.373117 406.525189,153.373117 C411.481503,153.373117 415.07726,151.72267 417.312462,150.363479 L415.951905,145.703394 C414.008252,146.9655 410.801224,148.421776 407.108284,148.421776 C401.372017,148.421776 400.208317,144.730053 400.208317,138.225351 L400.208317,110.361926 L417.409644,107.954713 Z" id="Fill-29" fill="#262626" fill-rule="nonzero"></path>
            <path d="M348.554998,133.691974 L348.70451,131.87723 C349.965392,122.16623 357.059724,115.761102 366.100202,115.761102 C374.290954,115.761102 379.90512,120.988761 381.676834,128.999528 L348.554998,133.691974 Z M366.100202,111.003932 C353.075236,111.003932 343.25979,121.001208 343.25979,134.983953 C343.25979,149.061294 352.880871,159.06106 366.48644,159.06106 C375.332552,159.06106 381.455059,155.565995 385.439547,150.226315 L381.746606,147.119592 C378.442397,151.391336 373.3889,154.206805 366.583623,154.206805 C356.900245,154.206805 349.873193,147.769315 348.667132,138.0384 L387.256114,132.489613 C387.191326,131.033336 387.019388,129.619379 386.742791,128.265166 C384.677037,118.061272 376.872523,111.003932 366.100202,111.003932 L366.100202,111.003932 Z" id="Fill-31" fill="#262626" fill-rule="nonzero"></path>
            <path d="M274.796865,220.882864 C274.796865,220.180864 274.906507,219.561013 275.001197,219.140311 L276.710615,211.316247 L280.894452,211.316247 L281.617092,207.9108 L277.440731,207.9108 L278.591972,202.593524 L273.583328,204.234013 L272.778457,207.9108 L269.406967,207.9108 L268.666883,211.316247 L272.048341,211.316247 L270.725162,217.370374 C270.411187,218.796779 270.137082,220.153481 270.137082,221.542545 C270.137082,224.9928 272.359823,226.227523 275.529472,226.227523 C276.326869,226.227523 277.236398,225.993524 278.031302,225.809311 L278.828699,222.209694 C278.238127,222.441205 277.403353,222.61546 276.573563,222.61546 C275.529472,222.61546 274.796865,221.960758 274.796865,220.882864" id="Fill-33" fill="#262626" fill-rule="nonzero"></path>
            <path d="M329.656712,213.203183 C329.656712,217.684034 335.719414,217.957864 335.719414,220.850502 C335.719414,222.304289 334.079769,222.822077 332.507403,222.822077 C330.700803,222.822077 329.382608,222.172353 328.06192,221.437992 L327.055208,225.157098 C328.754659,225.958672 330.64349,226.227524 332.507403,226.227524 C336.51681,226.227524 340.598481,224.840949 340.598481,220.183353 C340.598481,215.802077 334.543255,214.97063 334.543255,212.710289 C334.543255,211.288864 336.277591,210.905502 337.660575,210.905502 C338.988738,210.905502 340.274539,211.288864 340.777895,211.560205 L341.789591,208.052694 C340.872586,207.801268 339.130774,207.497566 337.433816,207.497566 C333.7334,207.497566 329.656712,208.991183 329.656712,213.203183" id="Fill-35" fill="#262626" fill-rule="nonzero"></path>
            <path d="M349.146317,220.882864 C349.146317,220.180864 349.248483,219.561013 349.360617,219.140311 L351.055084,211.316247 L355.238921,211.316247 L355.97402,207.9108 L351.792675,207.9108 L352.941423,202.593524 L347.93278,204.234013 L347.137876,207.9108 L343.756418,207.9108 L343.026302,211.316247 L346.3953,211.316247 L345.06963,217.370374 C344.768115,218.796779 344.49401,220.153481 344.49401,221.542545 C344.49401,224.9928 346.716751,226.227523 349.8864,226.227523 C350.678813,226.227523 351.580866,225.993524 352.393214,225.809311 L353.185626,222.209694 C352.595055,222.441205 351.755297,222.61546 350.927998,222.61546 C349.8864,222.61546 349.146317,221.960758 349.146317,220.882864" id="Fill-37" fill="#262626" fill-rule="nonzero"></path>
            <path d="M304.436323,207.497566 C301.932002,207.497566 299.315546,208.57546 298.139387,210.907992 L298.067123,210.907992 C297.827904,208.747226 295.632573,207.497566 293.511998,207.497566 C291.314175,207.497566 289.270848,208.478374 288.012458,210.308055 L287.942685,210.308055 L288.36381,207.908311 L284.013018,207.908311 C283.905868,208.478374 283.763832,209.195311 283.634255,209.892332 L280.352472,225.809311 L285.022222,225.809311 L286.861217,217.300672 C287.451788,214.895949 288.333908,211.10714 291.493589,211.10714 C292.674732,211.10714 293.686429,211.943566 293.686429,213.267906 C293.686429,214.3458 293.340059,216.008694 293.085889,217.091566 L291.216992,225.809311 L295.876776,225.809311 L297.720754,217.300672 C298.313817,214.863587 299.118689,211.10714 302.348143,211.10714 C303.536761,211.10714 304.535998,211.943566 304.535998,213.267906 C304.535998,214.3458 304.187137,216.008694 303.947918,217.091566 L302.071546,225.809311 L306.738805,225.809311 L308.617669,217.263332 C309.003907,215.802077 309.415064,213.992311 309.415064,212.404098 C309.415064,209.688205 307.115076,207.497566 304.436323,207.497566" id="Fill-39" fill="#262626" fill-rule="nonzero"></path>
            <path d="M260.500302,207.497566 C254.62449,207.497566 250.301109,212.852183 250.301109,218.413417 C250.301109,223.733183 253.779749,226.227524 258.935413,226.227524 C260.851655,226.227524 262.832685,225.781928 264.636794,225.229289 L265.229857,221.542545 C263.490537,222.344119 261.64905,222.824566 259.732808,222.824566 C256.752541,222.824566 255.015713,221.771566 254.783969,218.956098 L254.778986,218.956098 C254.778986,218.7918 254.751575,218.629992 254.751575,218.458226 L254.751575,218.356161 L254.751575,218.296417 L254.769018,218.296417 C254.778986,217.084098 255.048106,215.874268 255.524053,214.761524 C256.41614,212.476289 257.684497,210.907992 260.433022,210.907992 C262.379166,210.907992 263.388371,211.980906 263.388371,213.890247 C263.388371,214.30846 263.355977,214.691821 263.286204,215.115013 L256.907037,215.115013 C256.485911,216.514034 256.41614,217.455013 256.408663,218.296417 L267.392794,218.296417 C267.666899,216.987013 267.841329,215.665161 267.841329,214.30846 C267.841329,209.750439 264.925849,207.497566 260.500302,207.497566" id="Fill-41" fill="#262626" fill-rule="nonzero"></path>
            <path d="M364.790977,207.497566 C358.910182,207.497566 354.596768,212.852183 354.596768,218.413417 C354.596768,223.733183 358.082883,226.227524 363.223596,226.227524 C365.137346,226.227524 367.12336,225.781928 368.934944,225.229289 L369.515549,221.542545 C367.786196,222.344119 365.942218,222.824566 364.028467,222.824566 C361.033249,222.824566 359.301404,221.771566 359.084612,218.956098 L359.054709,218.296417 C359.074644,217.084098 359.343766,215.874268 359.819711,214.761524 C360.704323,212.476289 361.970189,210.907992 364.726189,210.907992 C366.677317,210.907992 367.681538,211.980906 367.681538,213.890247 C367.681538,214.30846 367.639176,214.691821 367.571895,215.112524 L361.205187,215.112524 C360.779079,216.514034 360.704323,217.455013 360.699339,218.296417 L371.685961,218.296417 C371.965049,216.987013 372.134496,215.665161 372.134496,214.30846 C372.134496,209.750439 369.211541,207.497566 364.790977,207.497566" id="Fill-43" fill="#262626" fill-rule="nonzero"></path>
            <path d="M379.691069,211.290108 L379.608837,211.290108 L380.239278,207.912045 L375.78632,207.912045 C375.65176,208.74847 375.5172,209.542576 375.372671,210.306811 L372.163153,225.813045 L376.835395,225.813045 L378.494975,217.784853 C379.093022,214.894705 380.695289,211.944811 383.999499,211.944811 C384.595054,211.944811 385.252906,212.049364 385.768722,212.223619 L386.74304,207.668087 C386.192338,207.533661 385.569373,207.498811 384.973817,207.498811 C382.818356,207.498811 380.518367,209.33596 379.691069,211.290108" id="Fill-45" fill="#262626" fill-rule="nonzero"></path>
            <path d="M316.725192,222.84697 C315.554017,222.84697 314.370383,222.214672 314.370383,220.967502 C314.370383,217.945417 318.123127,217.564545 320.38823,217.564545 L322.017908,217.564545 C321.287792,220.449715 320.2138,222.84697 316.725192,222.84697 M319.967105,207.512502 C317.881417,207.512502 315.858024,207.895864 313.874501,208.590395 L313.21665,212.304523 C315.06312,211.440715 317.039167,210.920439 319.10243,210.920439 C320.729615,210.920439 322.688219,211.440715 322.688219,213.243013 C322.688219,213.768268 322.688219,214.288545 322.541199,214.77646 L320.911521,214.77646 C316.52086,214.77646 309.914933,215.224545 309.914933,221.139268 C309.914933,224.442651 312.207446,226.244949 315.446867,226.244949 C318.023453,226.244949 319.620737,225.099842 321.220512,223.088439 L321.287792,223.088439 L320.804371,225.834205 L324.73653,225.834205 C325.150179,222.45863 326.921894,215.438629 326.921894,213.036395 C326.921894,208.834353 323.555387,207.512502 319.967105,207.512502" id="Fill-47" fill="#262626" fill-rule="nonzero"></path>
            <polygon id="Fill-49" fill="#262626" fill-rule="nonzero" points="214.539394 207.90856 210.7094 225.812049 215.376659 225.812049 219.191701 207.90856"></polygon>
            <path d="M205.805665,220.882864 C205.805665,220.180864 205.905339,219.561013 206.012489,219.140311 L207.714432,211.316247 L211.893285,211.316247 L212.620909,207.9108 L208.452022,207.9108 L209.595787,202.593524 L204.587144,204.234013 L203.782272,207.9108 L200.418258,207.9108 L199.673191,211.316247 L203.054648,211.316247 L201.731469,217.370374 C201.422479,218.796779 201.140898,220.153481 201.140898,221.542545 C201.140898,224.9928 203.373607,226.227523 206.53578,226.227523 C207.333176,226.227523 208.237722,225.993524 209.045086,225.809311 L209.83999,222.209694 C209.251911,222.441205 208.412153,222.61546 207.584854,222.61546 C206.53578,222.61546 205.805665,221.960758 205.805665,220.882864" id="Fill-51" fill="#262626" fill-rule="nonzero"></path>
            <polygon id="Fill-53" fill="#262626" fill-rule="nonzero" points="219.934525 204.646002 220.906351 200.192534 216.249061 200.192534 215.267267 204.646002"></polygon>
            <polygon id="Fill-55" fill="#262626" fill-rule="nonzero" points="252.59138 207.9108 246.536154 207.9108 240.037376 214.415502 239.962621 214.415502 243.060006 199.753161 238.395239 199.753161 232.868288 225.809311 237.425905 225.809311 239.444313 216.327332 239.506609 216.327332 244.141474 225.809311 249.391828 225.809311 243.999437 216.080885"></polygon>
            <path d="M224.059055,217.958361 C224.059055,214.590255 226.149728,211.110128 229.872571,211.110128 C231.160864,211.110128 232.381877,211.426277 233.291407,212.013766 L234.435172,208.195085 C233.176781,207.801766 231.502249,207.498064 229.762929,207.498064 C223.32894,207.498064 219.192449,212.257723 219.192449,218.518468 C219.192449,223.141213 222.182683,226.228021 226.815056,226.228021 C228.342568,226.228021 229.872571,226.096085 231.3029,225.401553 L231.823699,221.712319 C230.602686,222.304787 229.17485,222.618447 228.033576,222.618447 C224.834025,222.618447 224.059055,220.288405 224.059055,217.958361" id="Fill-57" fill="#262626" fill-rule="nonzero"></path>
            <path d="M171.279913,224.643542 C170.183494,224.643542 169.034745,224.449372 168.127707,223.983861 L168.471584,221.275436 C168.912644,217.884926 170.891183,214.957436 173.525081,214.957436 C175.580868,214.957436 176.530267,216.495861 176.530267,218.616798 C176.530267,221.790734 174.576647,224.643542 171.279913,224.643542 M173.746857,213.762542 C171.696054,213.762542 170.083819,215.104308 169.057172,217.00867 L169.009826,216.983777 L170.108737,207.760692 L168.862806,207.760692 L166.787085,224.618649 C168.082853,225.4725 169.645252,225.838436 171.32975,225.838436 C175.50362,225.838436 177.850955,222.400628 177.850955,218.713883 C177.850955,215.885968 176.482922,213.762542 173.746857,213.762542" id="Fill-59" fill="#262626" fill-rule="nonzero"></path>
            <path d="M188.662149,218.959832 C188.298338,222.081492 185.903657,224.643045 183.827936,224.643045 C182.287965,224.618151 181.288728,223.886279 181.677459,220.961279 L182.631842,213.886513 L181.360992,213.886513 L180.384182,221.058364 C179.920696,224.448874 181.139216,225.840428 183.533896,225.840428 C185.415252,225.840428 187.149588,224.496172 188.176235,222.522108 L188.223581,222.544513 L188.051643,224.058045 C187.515892,228.546364 185.512435,229.474895 183.292186,229.474895 C182.362721,229.474895 181.139216,229.228449 179.895776,228.499066 L179.479635,229.669066 C180.70314,230.351151 182.021335,230.644895 183.267266,230.644895 C186.050678,230.644895 188.662149,229.474895 189.297574,224.15513 L190.568424,213.886513 L189.297574,213.886513 L188.662149,218.959832 Z" id="Fill-61" fill="#262626" fill-rule="nonzero"></path>
            <g id="Group-65" transform="translate(119.609400, 0.034258)">
                <g id="Fill-63-Clipped">
                    <g>
                        <mask id="mask-3" fill="white">
                            <use xlink:href="#path-2"></use>
                        </mask>
                        <g id="path-2"></g>
                        <path d="M1.64836704,112.199171 C1.76050085,115.066915 2.04706504,117.912255 2.40340137,120.750128 L2.3884502,120.752617 C2.59278293,122.388128 2.81206683,124.021149 3.08118798,125.649192 C3.25063462,126.66734 3.44250804,127.683 3.63936517,128.693681 C3.81379555,129.589851 3.94586426,130.503447 4.41184255,131.302532 C5.17435248,132.589532 6.87131083,132.621894 8.18701423,132.621894 C9.48776643,132.594511 10.0858135,132.489958 11.1249201,132.20866 C11.7752963,132.031915 12.4206886,131.820319 13.0361786,131.541511 C13.4573034,131.34734 13.8659689,131.128277 14.2372563,130.846979 C14.4714914,130.667745 14.6708404,130.471085 14.7904499,130.311766 C15.059571,129.993128 14.8303196,129.248808 14.7455963,129.238851 C14.6982509,129.233872 14.6509055,129.231383 14.6035602,129.231383 C14.3668332,129.231383 14.1226307,129.286149 13.8834119,129.308553 C13.7638025,129.321 13.6441931,129.333447 13.5270756,129.348383 C13.2579544,129.378255 12.993817,129.418085 12.7246958,129.457915 C12.2038966,129.535085 11.6855892,129.622213 11.1672818,129.714319 C10.9131118,129.761617 10.65645,129.806426 10.3972963,129.858702 C10.3399835,129.863681 9.73944459,129.955787 9.68960736,129.958277 C9.67465611,129.960766 9.66219687,129.960766 9.64724562,129.960766 C8.89968691,129.960766 8.65548438,128.574192 8.15462002,126.418405 C7.73349526,124.60366 7.44693106,122.141681 7.31735422,120.740171 C7.30987863,120.660511 7.28994373,120.386681 7.26253324,120.055595 L7.26004138,120.055595 C7.07564355,117.593617 6.18106492,106.242128 5.73252967,81.0721915 C5.71508663,80.1934468 5.79482624,8.71391493 5.79482624,8.68155318 C5.88951701,4.15340426 5.61292027,3.22487234 7.23263089,1.05165958 C7.35224029,0.887361705 7.23761462,0.640914894 7.03577376,0.654608231 C2.4482549,0.999382977 0.686508117,4.80810639 0.626703418,9.64244682 C0.626703418,9.65240424 0.631687143,79.4317021 0.624211555,81.0174255 C0.586833618,84.1565106 1.2720958,102.411 1.64836704,112.199171" id="Fill-63" fill="#262626" fill-rule="nonzero" mask="url(#mask-3)"></path>
                    </g>
                </g>
            </g>
            <path d="M152.430219,117.241277 C152.233362,117.241277 152.036505,117.256213 151.842139,117.283595 L107.903129,123.549319 C105.797505,123.850532 104.210188,125.680213 104.210188,127.801149 L104.210188,190.968702 C104.210188,192.215872 104.750922,193.398319 105.695338,194.21483 C106.632278,195.023872 107.883194,195.387319 109.131617,195.218042 L153.065644,188.845277 C155.163793,188.541574 156.746125,186.711894 156.746125,184.595936 L156.746125,121.535426 C156.746125,120.290745 156.207883,119.108298 155.265959,118.291787 C154.483514,117.614681 153.456866,117.241277 152.430219,117.241277 M108.511142,196.753979 C107.1157,196.753979 105.770094,196.253617 104.718528,195.342511 C103.445186,194.244702 102.717562,192.649021 102.717562,190.968702 L102.717562,127.801149 C102.717562,124.940872 104.85558,122.476405 107.693812,122.070639 L151.630331,115.804915 C153.287419,115.568426 154.971919,116.05883 156.242768,117.164106 C157.513619,118.264405 158.241243,119.857595 158.241243,121.535426 L158.241243,184.595936 C158.241243,187.448745 156.1107,189.910724 153.279944,190.321468 L109.343425,196.696724 C109.066828,196.736553 108.785247,196.753979 108.511142,196.753979" id="Fill-66" fill="#262626" fill-rule="nonzero"></path>
            <g id="Group-70" transform="translate(119.609400, 0.034258)">
                <g id="Fill-68-Clipped">
                    <g>
                        <mask id="mask-5" fill="white">
                            <use xlink:href="#path-4"></use>
                        </mask>
                        <g id="path-4"></g>
                        <path d="M1.64836704,112.199171 C1.76050085,115.066915 2.04706504,117.912255 2.40340137,120.750128 L2.3884502,120.752617 C2.59278293,122.388128 2.81206683,124.021149 3.08118798,125.649192 C3.25063462,126.66734 3.44250804,127.683 3.63936517,128.693681 C3.81379555,129.589851 3.94586426,130.503447 4.41184255,131.302532 C5.17435248,132.589532 6.87131083,132.621894 8.18701423,132.621894 C9.48776643,132.594511 10.0858135,132.489958 11.1249201,132.20866 C11.7752963,132.031915 12.4206886,131.820319 13.0361786,131.541511 C13.4573034,131.34734 13.8659689,131.128277 14.2372563,130.846979 C14.4714914,130.667745 14.6708404,130.471085 14.7904499,130.311766 C15.059571,129.993128 14.8303196,129.248808 14.7455963,129.238851 C14.6982509,129.233872 14.6509055,129.231383 14.6035602,129.231383 C14.3668332,129.231383 14.1226307,129.286149 13.8834119,129.308553 C13.7638025,129.321 13.6441931,129.333447 13.5270756,129.348383 C13.2579544,129.378255 12.993817,129.418085 12.7246958,129.457915 C12.2038966,129.535085 11.6855892,129.622213 11.1672818,129.714319 C10.9131118,129.761617 10.65645,129.806426 10.3972963,129.858702 C10.3399835,129.863681 9.73944459,129.955787 9.68960736,129.958277 C9.67465611,129.960766 9.66219687,129.960766 9.64724562,129.960766 C8.89968691,129.960766 8.65548438,128.574192 8.15462002,126.418405 C7.73349526,124.60366 7.44693106,122.141681 7.31735422,120.740171 C7.30987863,120.660511 7.28994373,120.386681 7.26253324,120.055595 L7.26004138,120.055595 C7.07564355,117.593617 6.18106492,106.242128 5.73252967,81.0721915 C5.71508663,80.1934468 5.79482624,8.71391493 5.79482624,8.68155318 C5.88951701,4.15340426 5.61292027,3.22487234 7.23263089,1.05165958 C7.35224029,0.887361705 7.23761462,0.640914894 7.03577376,0.654608231 C2.4482549,0.999382977 0.686508117,4.80810639 0.626703418,9.64244682 C0.626703418,9.65240424 0.631687143,79.4317021 0.624211555,81.0174255 C0.586833618,84.1565106 1.2720958,102.411 1.64836704,112.199171" id="Fill-68" fill="#262626" fill-rule="nonzero" mask="url(#mask-5)"></path>
                    </g>
                </g>
            </g>
            <path d="M129.064274,163.184936 C129.248672,163.184936 129.428086,163.252149 129.565138,163.376617 C129.729601,163.525979 129.816816,163.735085 129.811832,163.95166 L129.383232,179.848724 L144.319456,152.881468 L135.792302,153.984255 C135.550592,154.014128 135.29393,153.917042 135.129467,153.725361 C134.962512,153.531192 134.910183,153.269808 134.982447,153.02834 L139.450357,138.181787 L121.785543,140.437149 L121.785543,164.096042 L128.972074,163.189915 C129.001977,163.187426 129.03188,163.184936 129.064274,163.184936 M128.553442,183.637532 C128.488653,183.637532 128.421374,183.630064 128.356584,183.610149 C128.025167,183.520532 127.795916,183.21434 127.805883,182.870808 L128.291796,164.783106 L121.130184,165.684255 C120.923359,165.689234 120.704075,165.644426 120.544596,165.502532 C120.385117,165.360639 120.290426,165.156511 120.290426,164.942426 L120.290426,139.782447 C120.290426,139.404064 120.572006,139.087915 120.943294,139.040617 L140.40474,136.553745 C140.656418,136.546276 140.908096,136.618468 141.067575,136.810149 C141.23453,137.004319 141.286859,137.268192 141.214595,137.50966 L136.746686,152.353723 L145.59529,151.211106 C145.87687,151.176255 146.145992,151.303213 146.307962,151.532234 C146.46495,151.766234 146.479901,152.067447 146.34534,152.316383 L129.208802,183.25417 C129.074241,183.493149 128.820071,183.637532 128.553442,183.637532" id="Fill-71" fill="#262626" fill-rule="nonzero"></path>
        </g>
    </g>
</svg>