<?xml version="1.0" encoding="UTF-8"?>
<svg width="24px" height="24px" viewBox="0 0 24 24" version="1.1" xmlns="http://www.w3.org/2000/svg" xmlns:xlink="http://www.w3.org/1999/xlink">
    <!-- Generator: Sketch 47 (45396) - http://www.bohemiancoding.com/sketch -->
    <title>Social/Blog</title>
    <desc>Created with Sketch.</desc>
    <defs></defs>
    <g id="Icons" stroke="none" stroke-width="1" fill="none" fill-rule="evenodd">
        <g transform="translate(-552.000000, -48.000000)" id="Social/Blog" fill="#FFFFFF">
            <g transform="translate(552.000000, 48.000000)">
                <path d="M2,0 L22,0 C23.1045695,-2.02906125e-16 24,0.8954305 24,2 L24,22 C24,23.1045695 23.1045695,24 22,24 L2,24 C0.8954305,24 1.3527075e-16,23.1045695 0,22 L0,2 L0,2 C-1.3527075e-16,0.8954305 0.8954305,2.02906125e-16 2,0 L2,0 Z M6.40514064,13.079 C6.40514064,12.4075 6.09064064,11.991 5.55514064,11.7615 C5.95464064,11.532 6.26914064,11.243 6.26914064,10.597 C6.26914064,9.6025 5.66564064,9.05 4.18664064,9.05 L1.31364064,9.05 L1.31364064,15 L4.16964064,15 C5.66564064,15 6.40514064,14.2945 6.40514064,13.079 Z M4.65414064,10.818 C4.65414064,11.0985 4.51814064,11.2855 4.13564064,11.2855 L2.89464064,11.2855 L2.89464064,10.3505 L4.13564064,10.3505 C4.52664064,10.3505 4.65414064,10.5545 4.65414064,10.818 Z M4.79014064,13.113 C4.79014064,13.453 4.60314064,13.6995 4.19514064,13.6995 L2.89464064,13.6995 L2.89464064,12.5435 L4.20364064,12.5435 C4.59464064,12.5435 4.79014064,12.7645 4.79014064,13.113 Z M11.4966406,15 L11.4966406,13.5635 L8.86164063,13.5635 L8.86164063,9.05 L7.19564063,9.05 L7.19564063,15 L11.4966406,15 Z M17.2426406,12.0165 C17.2426406,10.036 16.1121406,8.9565 14.4971406,8.9565 C12.8821406,8.9565 11.7346406,10.053 11.7346406,12.0335 C11.7346406,14.014 12.8651406,15.0935 14.4801406,15.0935 C16.0951406,15.0935 17.2426406,13.997 17.2426406,12.0165 Z M15.5341406,12.0335 C15.5341406,13.1045 15.1601406,13.657 14.4971406,13.657 C13.8341406,13.657 13.4431406,13.0875 13.4431406,12.0165 C13.4431406,10.9455 13.8171406,10.393 14.4801406,10.393 C15.1431406,10.393 15.5341406,10.9625 15.5341406,12.0335 Z M23.1501406,12.4585 L23.1501406,11.736 L20.5321406,11.736 L20.5321406,12.9685 L21.6116406,12.9685 C21.5436406,13.3765 21.3141406,13.6995 20.6171406,13.6995 C19.8521406,13.6995 19.4696406,13.2065 19.4696406,12.025 C19.4696406,11.0815 19.7331406,10.393 20.5066406,10.393 C21.0761406,10.393 21.3141406,10.699 21.5096406,11.209 L23.0056406,10.6225 C22.5806406,9.509 22.0026406,8.9565 20.5151406,8.9565 C18.7131406,8.9565 17.7441406,10.2655 17.7441406,12.025 C17.7441406,13.9715 18.8576406,15.0935 20.4896406,15.0935 C22.2151406,15.0935 23.1501406,14.1585 23.1501406,12.4585 Z" id="Combined-Shape"></path>
            </g>
        </g>
    </g>
</svg>