<svg width="86" height="15" xmlns="http://www.w3.org/2000/svg"><g fill="none" fill-rule="evenodd"><path d="M0 0h86v16H0z"/><path d="M13.369 1.395s.028.075 0 .142c-.028.067-.106.264-.106.264s-.041.078-.105.152l-.092.092-.19.218-1.092 1.047-.103.104-.34.329s-.025.043-.025.108v.332s.007.06-.034.098c-.04.038-.459.35-.459.35s-.044.038-.08.367l-.395 2.975.131 4.747c.22 1.234.202 1.419.16 1.46-.043.044-.317.065-.47.073-.118.007-.393-.005-.481-.033-.089-.032-.034-.236-.034-.236l.038-.107.148-.402-1.544-.002s-.032-.01-.032-.049c0-.024.061-.14.061-.14a.13.13 0 0 1 .056-.064l1.035-.501-.65-2.01-.339-3.039-.148-.056c-.045 0-.045-.043-.045-.043L8.15 4.79c0-.067-.033-.094-.033-.094s-.463-.377-.492-.406c-.028-.025-.025-.07-.025-.07s.005-.149.005-.196c0-.047-.018-.078-.018-.078l-.248-.24-.863-.771-.01-.004-.529-.472-.09-.092c-.063-.075-.108-.154-.108-.154l-.104-.403.239-.424c.04-.07.106-.015.106-.015s.203.152.313.226c.11.075.103.16.103.205 0 .047.035.322.035.322.007.111.067.15.067.15l1.423 1.053.702.42.51-.045.023-.433s-.207-.047-.259-.08c-.087-.056-.095-.155-.095-.155s-.048-.524.116-1.055c.099-.322.344-.642.59-.59 0 0 .481.075.693.356 0 0 .07.067.093.229.021.071.027.114.035.14l.052.165a.332.332 0 0 0 .156.189s-.055.038-.117.04c-.073.002-.105-.04-.105-.04s.01.043.028.092c.02.054.04.086.087.124a.82.82 0 0 0 .097.069s-.077.073-.128.072c-.025 0 .011.04.036.067.034.035.138.099.138.099s-.03.033-.06.058a.22.22 0 0 1-.134.04c-.06-.002-.146-.053-.146-.053s-.01.065-.01.108c0 .042.03.114.03.114s-.08.023-.134.015c-.043-.007-.106-.064-.145-.087l-.032.377.553-.267.223-.052 1.791-1.388a.277.277 0 0 0 .064-.145s.035-.275.035-.322c0-.046-.008-.13.101-.205.11-.072.315-.226.315-.226s.066-.055.104.016l.24.422zM.509 3.29h3.118V9.95H8.01v2.665H.509V3.289zm11.737 0h3.49l1.813 5.236 1.812-5.236h3.437l-3.784 9.392H16.03L12.246 3.29zm10.645 0h7.953v2.558h-4.89v.946h4.557v2.251h-4.556v1.013h4.956v2.558h-8.02V3.289zm11.71 0h2.918l3.317 4.117V3.289h3.091v9.326h-2.771L37.692 8.31v4.304h-3.09V3.289zM50.22 9.15l-.853-2.265-.852 2.265h1.705zm-2.371-5.929h3.09l3.93 9.393h-3.383l-.493-1.252h-3.264l-.48 1.252h-3.33l3.93-9.393zm4.919 2.705V3.289h8.606v2.638H58.63v6.688H55.51V5.927h-2.744zm9.073 6.688V3.289h3.117v9.326H61.84zm10.773-4.637v-.026c0-1.106-.759-2.105-1.958-2.105-1.186 0-1.932.986-1.932 2.078v.027c0 1.106.76 2.105 1.959 2.105 1.185 0 1.931-.986 1.931-2.079zm-7.034 0v-.026c0-2.705 2.225-4.863 5.103-4.863 2.877 0 5.076 2.132 5.076 4.836v.027c0 2.704-2.225 4.863-5.103 4.863-2.878 0-5.076-2.132-5.076-4.837zm10.517-4.69h2.917l3.318 4.118V3.289h3.09v9.326h-2.77L79.186 8.31v4.304h-3.091V3.289z" fill="#FFF"/></g></svg>