<svg height="92" width="92" xmlns:xlink="http://www.w3.org/1999/xlink" xmlns="http://www.w3.org/2000/svg"><defs><path d="M.001 45.999c0 25.405 20.595 46 46 46 25.404 0 46-20.595 46-46s-20.596-46-46-46c-25.405 0-46 20.595-46 46" id="a"/><path d="M.001 45.999c0 25.405 20.595 46 46 46 25.404 0 46-20.595 46-46s-20.596-46-46-46c-25.405 0-46 20.595-46 46z" id="c"/><path d="M.001 45.999c0 25.405 20.595 46 46 46 25.404 0 46-20.595 46-46s-20.596-46-46-46c-25.405 0-46 20.595-46 46" id="e"/><path d="M.001 45.999c0 25.405 20.595 46 46 46 25.404 0 46-20.595 46-46s-20.596-46-46-46c-25.405 0-46 20.595-46 46" id="g"/><path d="M.001 45.999c0 25.405 20.595 46 46 46 25.404 0 46-20.595 46-46s-20.596-46-46-46c-25.405 0-46 20.595-46 46" id="i"/><path d="M.001 45.999c0 25.405 20.595 46 46 46 25.404 0 46-20.595 46-46s-20.596-46-46-46c-25.405 0-46 20.595-46 46z" id="k"/><path d="M.001 45.999c0 25.405 20.595 46 46 46 25.404 0 46-20.595 46-46s-20.596-46-46-46c-25.405 0-46 20.595-46 46" id="m"/><path d="M.001 45.999c0 25.405 20.595 46 46 46 25.404 0 46-20.595 46-46s-20.596-46-46-46c-25.405 0-46 20.595-46 46" id="o"/><path d="M46.001 91.999c25.404 0 46-20.595 46-46s-20.596-46-46-46c-25.405 0-46 20.595-46 46s20.595 46 46 46z" id="q"/></defs><g fill-rule="evenodd" fill="none"><mask fill="#fff" id="b"><use xlink:href="#a"/></mask><path mask="url(#b)" d="M0 45.999c0-25.405 20.595-46 46-46 25.406 0 46 20.595 46 46s-20.594 46-46 46c-25.405 0-46-20.595-46-46" fill-rule="nonzero" fill="#EBEBEB"/><mask fill="#fff" id="d"><use xlink:href="#c"/></mask><path mask="url(#d)" d="M57.022-8.147l10.955 34.692a1.008 1.008 0 001.75.33c2.475-3.106 8.084-11.44 10.295-25.438l-23-9.584z" fill-rule="nonzero" fill="#A3BF66"/><mask fill="#fff" id="f"><use xlink:href="#e"/></mask><path mask="url(#f)" d="M73.013 38.514c2.12-1.864 9.456-10.861 15.154-26.057l16.46 28.949s-9.838 18.692-14.983 26.107c-.527.76-1.674.685-2.112-.13l-14.78-27.45a1.158 1.158 0 01.26-1.42" fill-rule="nonzero" fill="#A3BF66"/><mask fill="#fff" id="h"><use xlink:href="#g"/></mask><path mask="url(#h)" d="M90.564 72.353c-.558 0-1.11-.242-1.49-.709-28.77-35.483-34.858-86.728-34.915-87.242a1.917 1.917 0 013.808-.431c.058.502 6.033 50.662 34.085 85.258a1.92 1.92 0 01-.281 2.697 1.918 1.918 0 01-1.207.427" fill-rule="nonzero" fill="#EBEBEB"/><mask fill="#fff" id="j"><use xlink:href="#i"/></mask><path mask="url(#j)" d="M26.574-.206L57.61 18.416a1.438 1.438 0 001.479-2.464L28.053-2.671a1.437 1.437 0 10-1.479 2.465" fill-rule="nonzero" fill="#FFF"/><mask fill="#fff" id="l"><use xlink:href="#k"/></mask><path mask="url(#l)" d="M39.406 41.126a1.437 1.437 0 102.647 1.121l6.219-14.69 13.964-.582a1.437 1.437 0 001.377-1.496 1.418 1.418 0 00-1.497-1.376L11.082 26.23l-5.574-8.343a1.436 1.436 0 00-1.993-.395 1.436 1.436 0 00-.397 1.993l4.6 6.886-11.132.462a1.439 1.439 0 00.06 2.874l.06-.001 48.39-2.017-5.69 13.437z" fill-rule="nonzero" fill="#FFF"/><mask fill="#fff" id="n"><use xlink:href="#m"/></mask><path mask="url(#n)" d="M79.412 80.542c-8.9-2.225-18.712-4.665-26.354-6.533 4.854-19.432 7.32-29.587 7.327-30.183a1.437 1.437 0 00-1.42-1.454c-.804-.021-1.384.567-1.45 1.308-.212 1.302-4.306 17.853-7.25 29.649-5.963-1.448-10.09-2.413-10.493-2.413a1.43 1.43 0 00-1.241.724 1.475 1.475 0 00-.32-.04c-.01 0-.02 0-.028.002-.448.008-8.69.235-17.382 4.334l-5.67-12.874 17.84-6.61a1.44 1.44 0 00-1-2.698L4.976 63.76c2.669-5.075 3.045-12.622 3.06-12.956a1.437 1.437 0 00-1.37-1.5c-.815-.019-1.466.578-1.503 1.37-.002.08-.39 7.897-3.04 12.315a1.434 1.434 0 00.214 1.748l-1.399.519a1.438 1.438 0 001 2.697l10.491-3.888 5.809 13.19a36.466 36.466 0 00-5.252 3.57 1.438 1.438 0 101.822 2.225c10.012-8.193 23.3-8.57 23.432-8.573.523-.012.97-.303 1.214-.726.069.017.138.032.211.037.66.1 4.854 1.099 10.594 2.5L61.597 92.35a1.437 1.437 0 002.349-1.658L54.515 77.33a6539.927 6539.927 0 0124.199 6.002 1.44 1.44 0 001.744-1.046 1.437 1.437 0 00-1.046-1.743" fill-rule="nonzero" fill="#FFF"/><mask fill="#fff" id="p"><use xlink:href="#o"/></mask><path mask="url(#p)" d="M84.143 7.272c-.76-.24-1.565.18-1.804.938-.065.209-6.724 20.954-17.636 27.28a1.438 1.438 0 101.443 2.488C78.022 31.09 84.799 9.97 85.08 9.074a1.435 1.435 0 00-.938-1.802" fill-rule="nonzero" fill="#FFF"/><mask fill="#fff" id="r"><use xlink:href="#q"/></mask><path mask="url(#r)" d="M88.59 70.844c-27.958-34.483-33.922-84.51-33.98-85.01a2.395 2.395 0 10-4.761.539c.171 1.512 3.283 27.688 15.75 55.51l-34.63-2.474c-6.084-27.32-5.981-47.912-3.316-55.375a2.396 2.396 0 00-4.513-1.612c-2.914 8.16-3.22 29.515 3.078 57.889l-31.42 12.567a2.4 2.4 0 00-1.335 3.115 2.399 2.399 0 003.115 1.335l30.735-12.295C31.387 61.9 37.743 81 47.186 101.161a2.395 2.395 0 104.338-2.033C42.336 79.51 36.12 60.808 32.108 44.293l35.815 2.56c4.504 9.251 10.073 18.532 16.946 27.009a2.39 2.39 0 001.863.887 2.395 2.395 0 001.858-3.904" fill-rule="nonzero" fill="#EBC66D"/></g></svg>