<?xml version="1.0" standalone="no"?>
<!DOCTYPE svg PUBLIC "-//W3C//DTD SVG 1.1//EN" "http://www.w3.org/Graphics/SVG/1.1/DTD/svg11.dtd" >
<!--
2016-6-17: Created with FontForge (http://fontforge.org)
-->
<svg xmlns="http://www.w3.org/2000/svg" xmlns:xlink="http://www.w3.org/1999/xlink" version="1.1">
<metadata>
Created by FontForge 20160407 at Fri Jun 17 09:49:48 2016
 By Allen Bargi

</metadata>
<defs>
<font id="icons" horiz-adv-x="512" >
  <font-face
    font-family="icons"
    font-weight="400"
    font-stretch="normal"
    units-per-em="512"
    panose-1="2 0 5 9 0 0 0 0 0 0"
    ascent="448"
    descent="-64"
    bbox="-1.04004 -67.5068 904.768 448.51"
    underline-thickness="25.6"
    underline-position="-51.2"
    unicode-range="U+F101-F126"
  />
    <missing-glyph />
    <glyph glyph-name="calendar" unicode="&#xf101;"
d="M343.252 430.345v0h22.7217c8.05078 0 14.5664 -6.51465 14.5479 -14.5654v-74.5225c0 -8.05078 -6.51465 -14.5654 -14.5654 -14.5654h-22.7041c-8.01562 0 -14.5479 6.51465 -14.5479 14.5654v74.5225c0 8.05078 6.53223 14.5654 14.5479 14.5654zM135.892 430.345v0
h22.6875c8.06836 0 14.6182 -6.51465 14.6006 -14.5654v-74.5225c0 -8.05078 -6.53223 -14.5654 -14.6006 -14.5654h-22.6875c-8.01562 0 -14.5479 6.51465 -14.5479 14.5654v74.5225c0 8.05078 6.53223 14.5654 14.5479 14.5654zM263.892 106.372v0v-38.8936h77.7539
v38.8936h-77.7539zM263.892 171.167v0v-38.8945h77.7539v38.8945h-77.7539zM263.892 235.943v0v-38.876h77.7539v38.876h-77.7539zM367.581 106.372v0v-38.8936h77.7529v38.8936h-77.7529zM367.581 171.167v0v-38.8945h77.7529v38.8945h-77.7529zM367.581 235.943v0v-38.876
h77.7529v38.876h-77.7529zM160.221 106.372v0v-38.8936h77.7354v38.8936h-77.7354zM160.221 171.167v0v-38.8945h77.7354v38.8945h-77.7354zM160.221 235.943v0v-38.876h77.7354v38.876h-77.7354zM56.5498 106.372v0v-38.8936h77.7529v38.8936h-77.7529zM56.5498 171.167v0
v-38.8945h77.7529v38.8945h-77.7529zM56.5498 235.943v0v-38.876h77.7529v38.876h-77.7529zM61.3867 378.527v0h34.0576v-34.0576c0 -24.1523 19.5615 -43.7314 43.6963 -43.7314h16.2422c24.0996 0 43.75 19.5967 43.75 43.7314v34.0576h103.406l0.211914 -34.0576
c0 -24.1523 19.6328 -43.7314 43.7314 -43.7314h16.2432c24.1875 0 43.7314 19.5967 43.7314 43.7314v34.0576h34.0391c24.1885 0 43.7324 -19.5977 43.7324 -43.7676v-301.268c0 -24.1875 -19.5625 -43.7676 -43.7324 -43.7676h-379.109
c-24.1523 0 -43.7314 19.5977 -43.7314 43.7676v301.268c0 24.1699 19.5791 43.7676 43.7314 43.7676z" />
    <glyph glyph-name="calendar3" unicode="&#xf102;"
d="M364.964 374.482c-10.502 0 -18.3789 7.87695 -18.3789 18.3789v36.7588c0 10.5029 7.87695 18.3799 18.3789 18.3799c10.5029 0 18.3799 -7.87695 18.3799 -18.3799v-36.7588c0 -10.502 -7.87695 -18.3789 -18.3799 -18.3789zM110.277 374.482
c-10.5029 0 -18.3799 7.87695 -18.3799 18.3789v36.7588c0 10.5029 7.87695 18.3799 18.3799 18.3799c10.502 0 18.3789 -7.87695 18.3789 -18.3799v-36.7588c0 -10.502 -7.87695 -18.3789 -18.3789 -18.3789zM438.482 392.861c21.0049 0 36.7588 -15.7539 36.7588 -36.7588
v-383.344c0 -21.0049 -15.7539 -36.7588 -36.7588 -36.7588h-401.724c-21.0049 0 -36.7588 15.7539 -36.7588 36.7588v383.344c0 21.0049 15.7539 36.7588 36.7588 36.7588h18.3799c0 -28.8818 23.6309 -55.1387 55.1387 -55.1387
c31.5068 0 55.1377 23.6309 55.1377 55.1387h144.41c0 -31.5078 23.6309 -55.1387 55.1387 -55.1387s55.1387 23.6309 55.1387 55.1387h18.3799zM438.482 -27.2412v291.446h-401.724v-291.446h401.724z" />
    <glyph glyph-name="chevron-down" unicode="&#xf103;"
d="M0.811523 301.396l32.6455 32.5449l221.529 -221.528l224.266 224.367l32.6465 -32.5449l-256.912 -256.912l-254.175 254.073v0v0z" />
    <glyph glyph-name="chevron-right" unicode="&#xf104;"
d="M35.1494 -64.2031l-32.6094 32.7109l221.968 221.969l-224.812 224.711l32.6094 32.7109l257.422 -257.422l-254.577 -254.68v0z" />
    <glyph glyph-name="chevron-up" unicode="&#xf105;"
d="M0.811523 82.6045v0v0l254.175 254.073l256.912 -256.912l-32.6465 -32.5449l-224.266 224.367l-221.529 -221.528z" />
    <glyph glyph-name="download" unicode="&#xf106;"
d="M392.533 223.289c-2.84473 8.5332 -11.3779 11.3779 -19.9111 11.3779h-68.2666v170.666c0 22.7559 -19.9111 42.667 -42.667 42.667h-85.333c-19.9111 0 -39.8223 -19.9111 -39.8223 -42.667v-167.822h-68.2666c-8.5332 0 -17.0664 -5.68848 -19.9111 -11.377
c-2.84473 -8.53418 0 -17.0674 5.68945 -25.6006l153.6 -162.133c2.84473 -2.84473 8.5332 -5.68945 14.2217 -5.68945c5.68945 0 11.3779 2.84473 14.2227 5.68945l153.6 162.133c5.68945 8.5332 8.53418 17.0664 2.84473 22.7559zM73.9551 -64h295.822
c39.8223 0 73.9561 34.1338 73.9561 73.9551v65.4229h-34.1338v-65.4229c0 -22.7549 -17.0664 -39.8213 -39.8223 -39.8213h-295.822c-22.7549 0 -39.8213 17.0664 -39.8213 39.8213v65.4229h-34.1338v-65.4229c0 -39.8213 34.1338 -73.9551 73.9551 -73.9551z" />
    <glyph glyph-name="error" unicode="&#xf107;"
d="M0.121094 4.63379l255.94 443.306l255.938 -443.306h-511.879v0zM253.821 38.7002c21.1865 0 34.3525 15.4756 34.3525 35.541c0 20.6367 -13.167 35.541 -33.2061 35.541c-20.04 0 -34.3525 -14.9043 -34.3525 -35.541
c0.000976562 -20.0645 13.7402 -35.541 33.2061 -35.541v0zM279.662 129.706l10.4062 173.511h-71.3447l10.4053 -173.511h50.5332v0z" />
    <glyph glyph-name="error2" unicode="&#xf108;"
d="M256 435.81c134.096 0 243.81 -109.714 243.81 -243.81s-109.714 -243.81 -243.81 -243.81s-243.81 109.714 -243.81 243.81s109.714 243.81 243.81 243.81zM216.99 26.21h78.0195v51.1992h-78.0195v-51.1992zM216.99 357.79v-231.618h78.0195v231.618h-78.0195z" />
    <glyph glyph-name="external-link-custom-navigation" unicode="&#xf109;"
d="M426.667 192v170.667h-170.667l75.2637 -75.2646l-132.152 -132.181v-20.1104h20.1104l132.152 132.152zM113.777 49.7773v398.223h398.223v-398.223h-398.223zM312.889 -35.5557v56.8887h28.4443v-85.333h-341.333v341.333h85.333v-28.4443h-56.8887v-284.444h284.444z
" />
    <glyph glyph-name="external-link" unicode="&#xf10a;"
d="M332.255 88.5107v-98.043h-277.787v277.787h108.937v54.4688h-163.404v-386.724h386.724v152.511h-54.4688zM125.276 448v-54.4678h54.4688h239.659l-196.085 -196.085l38.1279 -38.1279l190.638 190.638v-234.212v-54.4688h54.4678v386.724h-381.276z" />
    <glyph glyph-name="eye" unicode="&#xf10b;"
d="M147.036 287.836v0c0 -57.7637 47.2617 -105.025 105.025 -105.025s105.025 47.2617 105.025 105.025s-47.2617 105.025 -105.025 105.025s-105.025 -47.2617 -105.025 -105.025zM488.369 287.836v0v0c-52.5127 -82.708 -135.221 -137.847 -228.431 -137.847
s-177.23 53.8262 -228.431 137.847v0c51.2002 84.0205 135.221 137.846 228.431 137.846s177.23 -53.8252 228.431 -137.846zM199.549 287.836v0c0 28.8818 23.6309 52.5127 52.5127 52.5127s52.5127 -23.6309 52.5127 -52.5127s-23.6309 -52.5127 -52.5127 -52.5127
s-52.5127 23.6309 -52.5127 52.5127z" />
    <glyph glyph-name="facebook" unicode="&#xf10c;"
d="M255.482 448.508v0c141.379 0 255.991 -114.614 255.991 -255.99c0 -141.377 -114.612 -255.991 -255.991 -255.991c-141.377 0 -255.99 114.613 -255.99 255.991c0 141.377 114.613 255.99 255.99 255.99zM322.416 185.867v0l6.21582 58.4492h-53.0547
l0.0585938 29.3037c0 15.2207 1.45215 23.3994 23.3809 23.3994h29.2637v58.5273h-46.8584c-56.2812 0 -76.043 -28.3809 -76.043 -76.1016v-35.1279h-35.1084v-58.4502h35.1084v-169.768h70.1992v169.768h46.8379z" />
    <glyph glyph-name="fullscreen" unicode="&#xf10d;"
d="M457.528 273.768l-0.0244141 119.761l-121.6 -0.00878906v54.4648l176.071 0.015625l0.0244141 -174.232h-54.4717zM0 -64v174.232h54.4717v-119.761l121.593 0.0244141v-54.4717zM356.087 253.596l-38.5117 38.5117l147.908 147.908l38.5117 -38.5117zM46.4893 -56.0156
l-38.5117 38.5117l146.891 146.89l38.5117 -38.5107zM457.528 110.232h54.4717l-0.0244141 -174.232l-176.071 0.015625v54.4648l121.6 -0.00878906zM0 448l176.064 -0.0244141v-54.4717l-121.593 0.0244141v-119.761h-54.4717v174.232zM465.485 -56.0186l-147.908 147.908
l38.5117 38.5117l147.908 -147.908zM193.377 293.135l-38.5117 -38.5117l-146.89 146.89l38.5117 38.5117z" />
    <glyph glyph-name="gplus" unicode="&#xf10e;"
d="M248.331 32.9512v0c2.26562 -12.1816 0.274414 -24.9492 -3.06152 -32.9512c-15.9854 -38.3779 -81.7715 -43.4375 -124.327 -25.2871c-12.0605 5.14355 -22.25 12.1514 -28.9141 20.7959c-0.202148 0.261719 -0.413086 0.518555 -0.608398 0.783203
c-8.63086 11.7695 -11.6904 30.0977 -6.70801 45.8086c6.95312 22.0078 29.9805 34.7949 53.7422 40.3066c12.3174 2.84473 23.6738 3.90332 40.2676 4.86426c2.96191 0.1875 10.4043 0.825195 13.415 0c6.06152 -1.65723 12.1416 -7.9834 17.7314 -12.2197
c5.96289 -4.50195 12.7002 -8.875 17.084 -12.7979c2.62891 -2.37305 19.3203 -18.3193 21.3789 -29.3027zM255.48 448.51v0c141.378 0 255.991 -114.615 255.991 -255.992c0 -141.378 -114.613 -255.991 -255.991 -255.991c-21.7471 0 -42.8564 2.7207 -63.0166 7.8252
c19.9287 4.43164 37.7773 12.1484 53.4355 23.293c21.6914 15.4258 40.2656 39.4131 40.2656 71.4043c0 32.5781 -17.1611 48.8965 -33.5576 64.1172c-5.92383 5.48145 -12.7783 12.1221 -21.3604 18.917c-7.59961 6.02246 -18.2607 11.1904 -20.7705 20.1641
c-3.73535 13.3086 5.50195 24.4004 12.8281 31.1279c17.2012 15.79 39.0312 27.9307 43.9355 59.8232c6.59082 42.7568 -14.3184 66.6572 -34.7949 84.8691c11.6104 1.49121 20.751 -2.09863 30.5391 0c5.43164 1.16602 12.1396 6.97266 17.083 9.74805
c2.8916 1.62793 5.88379 3.37402 8.53125 4.88379c2.49121 1.36328 8.27832 2.58008 6.72852 4.86426c-1.84375 3.37305 -9.09082 1.86328 -12.8281 1.85449c-74.1797 0 -142.044 6.7666 -184.351 -25.6553c-18.7314 -14.3281 -35.0889 -37.4824 -37.2471 -65.9023
c-1.96094 -26.0381 8.82617 -51.1826 25.0469 -67.1875c17.2402 -16.9951 40.7773 -26.0371 78.75 -23.1729c-1.51953 -2.6084 -4.8252 -6.58984 -5.49219 -11.0234c-2.8252 -18.5156 8.31543 -32.0195 14.6318 -42.7188
c-34.4424 -0.727539 -65.0879 -6.25781 -90.9307 -19.5361c-15.8594 -8.12207 -30.6992 -19.0908 -39.6836 -34.8486c-27.6104 40.8613 -43.7334 90.1201 -43.7334 143.146c0 141.377 114.614 255.99 255.99 255.99zM399.397 213.967v0h86.6943v31.1562h-86.6943v86.6738
h-31.1182v-86.6738h-87.3096v-31.1562h87.3096v-87.291h31.1182v87.291zM201.337 292.403v0c11.8672 -17.29 27.3027 -59.3916 15.8672 -90.3223c-8.66992 -23.5361 -40.1494 -34.9824 -64.1074 -24.4482c-26.499 11.6689 -45.5938 51.7988 -44.5635 88.5166
c0.422852 15.4561 5.46289 31.6562 15.2705 40.8945c6.81543 6.43359 18.6123 11.9258 31.7441 12.21c21.5859 0.490234 36.0303 -12.6104 45.7891 -26.8506z" />
    <glyph glyph-name="home" unicode="&#xf10f;"
d="M298.359 414.849l261.525 -261.524h-77.3525v-184.173h-106.82v147.338h-147.338v-147.338h-114.187v184.173h-73.6699l73.6699 77.3516v184.173h73.6689v-110.503z" />
    <glyph glyph-name="info-inverse" unicode="&#xf110;"
d="M0 192c0 141.4 114.6 256 256 256s256 -114.6 256 -256s-114.6 -256 -256 -256s-256 114.6 -256 256zM268.472 97.3516l35.5762 162.553h-25.2002l-64.7041 -2.44824l-3.31934 -14.5996c8.69531 -0.848633 14.3994 -2.44824 17.1201 -4.89648
c2.7041 -2.44824 4.10352 -6.52832 4.10352 -12.2959c0 -3.40039 -0.375977 -7.50391 -1.10352 -12.4805c-0.728516 -4.91992 -2.08008 -11.7998 -4 -20.624l-34.4482 -154.159h91.8721l2.42383 14.5996c-8.07227 0.847656 -13.752 2.7041 -17.0957 5.50391
c-3.32812 2.7998 -4.97656 7.35254 -4.97656 13.6719c0 2.37598 0.200195 5.32812 0.624023 8.84863c0.503906 3.52734 1.50391 8.97559 3.12793 16.3271zM250.824 291.472h57.1514l11.5283 54.1279h-56.5518z" />
    <glyph glyph-name="info" unicode="&#xf111;"
d="M268.472 97.3516c-1.62402 -7.35156 -2.62402 -12.7998 -3.12793 -16.3271c-0.423828 -3.52051 -0.624023 -6.47266 -0.624023 -8.84863c0 -6.31934 1.64844 -10.8721 4.97656 -13.6719c3.34375 -2.7998 9.02344 -4.65625 17.0957 -5.50391l-2.42383 -14.5996h-91.8721
l34.4482 154.159c1.91992 8.82422 3.27148 15.7041 4 20.624c0.727539 4.97656 1.10352 9.08008 1.10352 12.4805c0 5.76758 -1.39941 9.84766 -4.10352 12.2959c-2.7207 2.44824 -8.4248 4.04785 -17.1201 4.89648l3.31934 14.5996l64.7041 2.44824h25.2002z
M250.824 291.472l12.1279 54.1279h56.5518l-11.5283 -54.1279h-57.1514zM256 448c141.4 0 256 -114.6 256 -256s-114.6 -256 -256 -256s-256 114.6 -256 256s114.6 256 256 256zM256 -38.4004c127.048 0 230.4 103.353 230.4 230.4s-103.353 230.4 -230.4 230.4
s-230.4 -103.353 -230.4 -230.4s103.353 -230.4 230.4 -230.4z" />
    <glyph glyph-name="language" unicode="&#xf112;"
d="M454.07 447.481v0c31.708 0 57.4111 -25.7031 57.4111 -57.4111v-180.561c0 -31.709 -25.7031 -57.4131 -57.4111 -57.4131h-253.312l-119.397 -66.3311v66.3311h-23.4307c-31.708 0 -57.4111 25.7041 -57.4111 57.4131v180.561
c0 31.708 25.7031 57.4111 57.4111 57.4111h396.141z" />
    <glyph glyph-name="link" unicode="&#xf113;"
d="M512.204 447.463v0v-383.786h-204.686v-102.343h-307.054v307.029h127.928v179.1h383.812zM281.933 -13.0811v0v76.7578h-153.539v179.101h-102.344v-255.858h255.883zM281.933 89.2617v0v153.516h-127.954v-153.516h127.954zM486.619 89.2617h-0.000976562v332.615
h-332.64v-153.514h153.54v-179.102h179.101z" />
    <glyph glyph-name="menu-close" unicode="&#xf114;"
d="M512.583 419.898l-228.395 -228.433l228.395 -228.394l-27.6357 -27.6865l-228.419 228.419l-228.381 -228.419l-27.6748 27.6865l228.382 228.394l-228.382 228.433l27.6748 27.6602l228.381 -228.405l228.419 228.405z" />
    <glyph glyph-name="menu" unicode="&#xf115;"
d="M0 376.139v71.8613h512.002v-71.8613h-512.002zM0 174.663v71.8604h512.002v-71.8604h-512.002zM0 -27.8525v71.8604h512.002v-71.8604h-512.002z" />
    <glyph glyph-name="minus" unicode="&#xf116;"
d="M0.0078125 168v48h512v-48h-512z" />
    <glyph glyph-name="mobile" unicode="&#xf117;"
d="M210 448c22 0 40 -18 40 -40v-434c0 -22 -18 -40 -40 -40h-170c-22 0 -40 18 -40 40v434c0 22 18 40 40 40h170zM124 -46c14 0 24 10 24 24s-12 24 -24 24c-14 0 -24 -12 -24 -24c0 -14 12 -24 24 -24zM236 24v320h-222v-320h222z" />
    <glyph glyph-name="pin" unicode="&#xf118;"
d="M97.6553 271.82v0c0 -49.7998 40.6533 -90.1973 90.7607 -90.1973s90.709 40.3975 90.709 90.1973c0 49.8184 -40.6016 90.2148 -90.709 90.2148s-90.7607 -40.3965 -90.7607 -90.2148zM34.1338 260.54v0c0 84.7012 69.1025 153.326 154.282 153.326
c85.1973 0 154.3 -68.625 154.3 -153.326c0 -37.1543 -45.4141 -90.6924 -67.5156 -117.248c-28.2969 -33.9287 -86.7842 -180.395 -86.7842 -180.395s-58.8115 147.148 -87.1084 180.395c-22.7666 26.6924 -67.1738 79.5137 -67.1738 117.248z" />
    <glyph glyph-name="pin2" unicode="&#xf119;"
d="M302.77 285.538c0 -27.0762 -7.38477 -51.6924 -19.6924 -76.3076v0l-128 -265.846l-128 265.846v0c-12.3076 22.1543 -19.6924 49.2314 -19.6924 76.3076c0 83.6924 66.4609 152.616 147.692 152.616c81.2305 0 147.692 -68.9238 147.692 -152.616zM155.077 211.692
c41.8457 0 73.8457 32 73.8457 76.3076c0 41.8457 -32 76.3076 -73.8457 76.3076c-41.8467 0 -73.8467 -34.4619 -73.8467 -76.3076s32 -76.3076 73.8467 -76.3076z" />
    <glyph glyph-name="pinterest" unicode="&#xf11a;"
d="M244.481 447.483h21.4453c74.541 -5.11035 129.269 -34.0469 169.428 -74.2061c40.1211 -40.0928 69.5879 -94.1016 75.0918 -168.093v-26.3496c-5.46484 -73.7354 -34.6953 -127.716 -74.6201 -167.659c-39.9043 -39.8848 -93.7559 -69.0166 -167.196 -74.6582h-26.833
c-21.083 1.72949 -40.9658 4.63867 -58.1074 10.2705c-0.550781 2.33887 1.57227 4.44336 2.67383 6.26953c8.72754 14.4385 17.6328 31.708 22.8125 50.5107c6.01465 21.8398 10.7627 45.1426 16.9941 67.0723c0.648438 1.43457 1.85645 -1.55371 2.68262 -2.68359
c13.584 -18.7041 38.7061 -28.6221 67.0527 -27.7178c21.917 0.667969 41.9883 8.31543 56.75 17.4365c30.0381 18.4775 51.3457 49.1826 63.0811 85.3623c6.13281 19.0771 10.6045 40.6318 10.7129 63.5039c0.138672 26.7637 -3.00684 44.1904 -11.165 63.0215
c-21.4258 49.4785 -66.7754 84.4688 -131.449 91.2207c-22.5088 2.31934 -48.2588 -0.0585938 -67.9561 -4.47168c-39.374 -8.84473 -72.124 -28.7393 -94.3164 -54.1172c-22.291 -25.4756 -41.4766 -60.6426 -38.9023 -108.607
c1.82812 -34.2627 12.1084 -61.0967 33.084 -78.2568c4.46191 -3.62695 17.8682 -13.5635 25.4756 -11.6182c5.27832 1.34766 6.4873 8.44434 8.04102 14.7529c1.6709 6.68457 4.6582 12.5811 4.04883 18.7637c-0.647461 6.15332 -7.43066 11.0967 -10.3008 15.6572
c-10.3203 16.4336 -12.7969 40.0215 -8.94434 63.9258c4.81641 29.6826 17.8096 51.915 35.3252 67.9766c17.8877 16.3545 41.1826 28.6699 71.0713 32.1992c67.2578 7.88184 115.135 -25.418 122.967 -81.3828c4.34473 -31.2949 -2.9082 -66.4717 -11.6162 -89.873
c-8.61035 -22.9805 -22.4199 -46.2246 -46.5107 -56.7803c-30.8027 -13.4854 -66.1279 3.02637 -63.4932 38.4492c0.619141 8.29492 3.60645 16.9639 5.80859 24.6113c2.31934 8.00098 4.85547 15.7158 7.13574 23.2354c5.81934 18.9492 16.6689 46.8037 6.72266 68.3887
c-5.99609 12.9932 -18.124 20.5225 -34.8721 18.792c-42.5596 -4.44238 -54.6484 -67.0508 -37.0947 -106.858c-7.15527 -32.9854 -14.9785 -63.2969 -22.3506 -94.7881c-7.35156 -31.2656 -16.8359 -62.2559 -14.7725 -101.924
c-2.82129 -0.638672 -5.29688 1.6123 -7.60742 2.67383c-38.9805 18.3203 -72.123 46.4502 -96.5771 80.0449c-26.3799 36.2686 -45.123 81.6182 -48.7109 139.47v21.4658c4.54102 73.9326 34.5381 130.565 75.1113 170.333
c41.3105 40.4932 95.3193 70.2061 169.881 74.6377v0z" />
    <glyph glyph-name="plus" unicode="&#xf11b;"
d="M0 168v48h512v-48h-512zM232 -64v512h48v-512h-48z" />
    <glyph glyph-name="print" unicode="&#xf11c;"
d="M901.261 353.315c3.50684 -10.5205 3.50684 -21.041 3.50684 -31.5615v-175.343c0 -66.6299 -49.0967 -119.233 -112.22 -126.247v-87.6709h-680.329v87.6709c-63.123 7.01367 -112.219 63.124 -112.219 126.247v175.343c0 10.5205 0 21.041 3.50684 31.5615h897.754z
M750.466 -18.4111v178.85h-592.657v-178.85h592.657zM852.164 163.945v49.0957h-52.6025v-49.0957h52.6025zM852.164 255.123v52.6025h-52.6025v-52.6025h52.6025zM782.027 448c52.6025 0 98.1914 -35.0684 115.727 -84.1641h-890.74
c17.5342 49.0957 63.123 84.1641 119.232 84.1641h655.781z" />
    <glyph glyph-name="profile" unicode="&#xf11d;"
d="M-0.0634766 -64.1836v0c0 103.171 55.4824 227.569 133.389 271.879c-34.4805 22.502 -57.4082 71.2002 -57.4082 115.509c0 69.7441 56.6123 124.979 126.233 124.979c69.7773 0 126.29 -59.1309 126.29 -128.875c0 -42.7197 -21.3154 -85.6406 -53.8252 -108.479
c80.3799 -42.6094 138.01 -171.843 138.01 -275.014h-412.688z" />
    <glyph glyph-name="profile2" unicode="&#xf11e;"
d="M260.923 438.154v0c76.3076 0 100.923 -51.6924 100.923 -115.692v-14.7695c4.92383 0 7.38477 -7.38477 7.38477 -14.7695l-4.92285 -44.3076c0 -7.38477 -2.46191 -14.7695 -7.38477 -14.7695c-4.92285 -24.6152 -9.8457 -49.2305 -19.6924 -59.0762
c-2.46094 -2.46191 -4.92285 -4.92383 -7.38477 -7.38477l2.46191 -22.1543l174.77 -71.3848v-130.461h-492.308v130.461l174.769 71.3848l2.46191 22.1543l-7.38477 7.38477c-9.8457 12.3076 -14.7695 34.4609 -19.6924 59.0762
c-2.46094 2.46191 -7.38477 7.38477 -7.38477 14.7695l-4.92285 44.3076c0 7.38477 2.46191 14.7695 7.38477 14.7695v14.7695c0 64 24.6152 115.692 100.923 115.692z" />
    <glyph glyph-name="refresh" unicode="&#xf11f;"
d="M254.96 -64c-141.144 0 -256 114.856 -256 256.016l0.143555 3.48828l59.793 -1.28809l-0.144531 -3.48828c0.0322266 -106.896 88.0479 -194.903 196.208 -194.903s196.176 88.0078 196.176 196.191c0 108.168 -88.0078 196.16 -196.176 196.16
c-49.9756 0 -140.616 -15.5518 -186.128 -119.76l-54.7998 23.9521c61.3115 140.472 188.903 155.632 240.928 155.632c141.144 0 256 -114.84 256 -255.984c0 -141.159 -114.856 -256.016 -256 -256.016zM133.888 271.2l-116.647 -16.4004l-16.2002 115.208z" />
    <glyph glyph-name="search2" unicode="&#xf120;"
d="M489.739 20.0967c17.3135 -17.3145 17.3135 -44.5215 -4.94727 -61.8359c-7.41992 -7.41992 -17.3135 -12.3672 -29.6807 -12.3672c-9.89355 0 -22.2607 4.94727 -29.6816 12.3672l-106.357 106.357c-29.6807 -19.7871 -69.2559 -32.1543 -108.831 -32.1543
c-111.304 0 -202.821 91.5166 -202.821 202.821c0 113.777 91.5176 205.295 205.295 202.821c111.305 0 202.821 -91.5166 202.821 -202.821c0 -39.5752 -12.3672 -76.6768 -32.1543 -108.831zM66.7822 235.285c0 -79.1494 64.3096 -143.459 145.933 -145.933
c81.623 0 145.933 66.7832 145.933 145.933c0 81.623 -66.7832 145.933 -145.933 145.933c-81.623 0 -145.933 -66.7832 -145.933 -145.933z" />
    <glyph glyph-name="seat" unicode="&#xf121;"
d="M485.296 213.8c14.752 0 26.7041 -10.3037 26.7119 -23v-161c0 -12.6963 -11.9521 -23 -26.7041 -23h-35.5996c-14.752 0 -26.7041 10.2959 -26.7041 23v7.2002c-8.89648 -4.95215 -19.4482 -7.9043 -30.8477 -7.9043h-97.9521v-30.5996
c43.2959 -7.7998 76.9521 -32 86.3994 -62.4961h-232.8c9.35254 30.4482 43.0566 54.6963 86.3037 62.4961v30.5996h-114.199c-11.4004 0 -21.9443 2.95215 -30.8486 7.95215v-7.24805c0 -12.6963 -11.9521 -23 -26.7041 -23h-35.6475
c-14.7041 0 -26.7041 10.2959 -26.7041 23v161c0 12.6963 12 23 26.7041 23h35.6475c0.352539 0 0.704102 -0.0957031 1.10449 -0.0957031v185.696c0 26.8477 25.248 48.5996 56.4482 48.5996h272.239c31.248 0 56.4482 -21.752 56.4482 -48.5996v-185.696
c0.408203 0 0.751953 0.0957031 1.10449 0.0957031h35.5996zM256 407.2c-28.8477 0 -52.3037 -11.9521 -52.3037 -26.6484c0 -14.7441 23.4561 -26.6953 52.3037 -26.6953c28.9043 0 52.3037 11.9434 52.3037 26.6953c0 14.7041 -23.4072 26.6484 -52.3037 26.6484z
M423 86.6484v46.6475h-333.952v-46.6475h333.952z" />
    <glyph glyph-name="success" unicode="&#xf122;"
d="M263.314 435.81c134.095 0 243.81 -109.714 243.81 -243.81s-109.715 -243.81 -243.81 -243.81c-134.096 0 -243.81 109.714 -243.81 243.81s107.276 243.81 243.81 243.81zM407.162 282.21l-173.104 -170.667l-70.7051 70.7051l-31.6953 -29.2578l102.4 -99.9619
l204.8 199.924z" />
    <glyph glyph-name="tick" unicode="&#xf123;"
d="M185.712 82.3691l-185.982 186.043l40.1221 40.042l145.86 -145.939l285.464 285.466l40.0898 -40.0586z" />
    <glyph glyph-name="ticket" unicode="&#xf124;"
d="M139.832 326.688l-0.200195 -273.761l-120.224 0.0644531c-5.2002 0 -10.0723 2.04004 -13.7363 5.6875c-3.64746 3.68066 -5.65625 8.56055 -5.67188 13.752l0.0478516 71.1523c-0.015625 2.57617 1.0166 5.05566 2.84863 6.87207
c1.7998 1.81641 4.2793 2.86426 6.87109 2.84766c7.1123 -0.015625 14 2.07227 19.9521 5.93652c10.3281 6.75195 16.5039 18.1758 16.5039 30.5039c0.00878906 9.71973 -3.75977 18.8721 -10.6475 25.7598c-6.9043 6.8877 -16.0479 10.6719 -25.7598 10.6719
c-2.57617 0 -5.05664 1.03223 -6.87207 2.84863c-1.82422 1.7998 -2.84082 4.28711 -2.84082 6.87207l0.0244141 71.4238c0 10.3682 9.0957 19.4473 19.4639 19.4316zM159.184 260.72l0.0644531 65.9521l333.344 -0.223633c10.7041 0 19.3926 -8.71191 19.4082 -19.4238
l-0.0556641 -71.4648c0 -5.33594 -4.36816 -9.71973 -9.7207 -9.69531c-7.14355 0.015625 -14.04 -2.07227 -19.9678 -5.95215c-10.3359 -6.75195 -16.5039 -18.1523 -16.4883 -30.4805c-0.0234375 -20.0957 16.3203 -36.4316 36.4082 -36.4561
c5.36035 -0.015625 9.69629 -4.35938 9.69629 -9.71191l-0.0244141 -71.168c0 -6.56738 -3.28809 -12.6553 -8.7832 -16.2637c-3.18457 -2.05566 -6.88086 -3.15234 -10.6885 -3.16797l-333.312 0.21582l0.103516 147.928l39.8721 29.8965z" />
    <glyph glyph-name="twitter" unicode="&#xf125;"
d="M256 447.481c141.096 0 255.481 -114.386 255.481 -255.481c0 -141.097 -114.386 -255.481 -255.481 -255.481c-141.097 0 -255.481 114.385 -255.481 255.481c0 141.096 114.385 255.481 255.481 255.481v0zM427.192 286.948
c-12.5078 -5.50098 -25.9365 -9.24023 -39.9521 -10.9434c14.3389 8.59473 25.3887 22.2568 30.5859 38.5234c-13.4775 -7.96777 -28.3643 -13.7812 -44.2207 -16.9229c-12.7129 13.5469 -30.7705 22.0029 -50.8359 22.0029c-38.4639 0 -69.6465 -31.1426 -69.6465 -69.6279
c0 -5.46191 0.645508 -10.7852 1.83008 -15.8359c-57.8828 2.89648 -109.198 30.6348 -143.542 72.7207c-6.04004 -10.2178 -9.43652 -22.2178 -9.43652 -35.0195c0 -24.1357 12.2842 -45.4326 30.9883 -57.9414c-11.4131 0.352539 -22.1592 3.51465 -31.5459 8.71094
v-0.900391c0 -33.708 23.999 -61.8965 55.8477 -68.2676c-5.81348 -1.56641 -11.9404 -2.42676 -18.3418 -2.42676c-4.48242 0 -8.85742 0.449219 -13.1055 1.27246c8.87695 -27.7383 34.5693 -47.8408 65.0479 -48.4092
c-23.8223 -18.6543 -53.8701 -29.7334 -86.501 -29.7334c-5.5791 0 -11.1768 0.263672 -16.5801 0.977539c30.7715 -19.8291 67.4268 -31.3193 106.762 -31.3193c128.078 0 198.138 106.077 198.138 198.127c0 3.01465 -0.0986328 6.00879 -0.207031 9.01367
c13.5947 9.7793 25.3877 22.0713 34.7158 35.999v0z" />
    <glyph glyph-name="warning" unicode="&#xf126;"
d="M545.032 -44.7314h-489.979c-22.0215 0 -38.5371 22.0215 -27.5264 46.7959c11.0107 19.2686 225.72 382.624 242.236 412.903c11.0107 19.2686 41.29 19.2686 52.3008 0c13.7637 -22.0215 231.226 -388.129 244.989 -415.656
c13.7637 -19.2686 2.75293 -44.043 -22.0215 -44.043zM269.764 291.097v-173.419h57.8066v173.419h-57.8066zM269.764 37.8496h57.8066v38.5371h-57.8066v-38.5371z" />
  </font>
</defs>
</svg>
